<svg width="42" height="42" viewBox="0 0 42 42" fill="none" xmlns="http://www.w3.org/2000/svg">
<circle cx="21" cy="21" r="20.25" stroke="white" stroke-width="1.5"/>
<path d="M19.5945 15.4726C18.1262 14.8425 16.4766 14.8425 15.0083 15.4726C14.9136 15.5141 14.8188 15.5585 14.724 15.6042C14.4952 15.718 14.2736 15.847 14.0606 15.9905C13.7021 16.2317 13.3693 16.5119 13.0678 16.8265L8.97225 21.0919C8.35001 21.7396 8 22.6192 8 23.5355C8 25.4307 9.4973 26.9902 11.3169 26.9902C11.3173 26.9902 11.3177 26.9902 11.3181 26.9902C11.3582 26.9902 11.3983 26.9902 11.4384 26.9879C10.4603 26.6141 9.80628 25.6386 9.80628 24.5533C9.80628 23.8441 10.0856 23.1651 10.5786 22.6758L14.0032 19.1099L14.3664 18.7299L14.4893 18.6019L14.629 18.4562C14.7143 18.3684 14.8026 18.2846 14.894 18.2048C16.3094 16.9182 18.1265 16.2099 20.0051 16.2123C20.3113 16.2121 20.6171 16.2306 20.9212 16.2675C20.5137 15.9441 20.0677 15.677 19.5945 15.4726ZM33.4739 17.1575C32.7887 15.4015 30.8384 14.5428 29.1518 15.2545L29.1092 15.2729C28.9353 15.349 28.7681 15.4406 28.6094 15.5467C28.4083 15.6808 28.2218 15.8372 28.0531 16.0132L25.5475 18.6233L25.1858 18.9987C25.1747 19.0099 25.1637 19.0211 25.1523 19.0316C24.7188 19.4473 24.0385 19.4326 23.6218 18.9987L21.6996 16.9966C20.262 16.6375 18.7528 16.7448 17.3753 17.3039C18.3515 17.3212 19.2837 17.7346 19.9723 18.4555L23.2964 21.9174C23.9045 22.5493 24.9037 22.5493 25.5118 21.9174L29.6152 17.6435C29.655 17.602 29.698 17.5638 29.7432 17.529C30.1943 17.1265 30.7689 16.9051 31.3628 16.9051C32.4156 16.9051 33.3598 17.6008 33.7101 18.6348C33.713 18.5759 33.7143 18.5174 33.7143 18.4585C33.7155 18.0126 33.6343 17.5709 33.4739 17.1575ZM31.3643 17.4823C31.2522 17.4822 31.1404 17.4923 31.0298 17.5125C31.0832 17.5511 31.1334 17.5946 31.1795 17.6425C31.3871 17.8584 31.5036 18.1516 31.5036 18.457C31.5036 18.7624 31.3871 19.0556 31.1795 19.2715L27.102 23.5194L27.0758 23.5464C27.0037 23.6214 26.9295 23.6928 26.8531 23.7606C25.4284 25.0849 23.5835 25.8162 21.674 25.8136C21.3891 25.8137 21.1043 25.7978 20.8211 25.766C22.5003 27.0656 24.7149 27.3614 26.6547 26.5451C26.7583 26.5012 26.8602 26.4547 26.9605 26.4056C27.5839 26.0999 28.1517 25.6836 28.6382 25.1754L32.6171 21.033L32.7435 20.9014C32.788 20.8549 32.8313 20.8073 32.873 20.7586C33.1482 20.4012 33.2982 19.9565 33.2982 19.4985C33.2982 18.3932 32.4248 17.4836 31.3637 17.4836C31.3631 17.4836 31.3628 17.4836 31.3624 17.4836L31.3643 17.4823ZM24.3644 24.697C23.3761 24.6879 22.4298 24.274 21.7315 23.5454L18.4231 20.0999C18.1273 19.7877 17.7244 19.6102 17.3033 19.6064C16.887 19.6046 16.4869 19.7768 16.1932 20.0841L15.2172 21.1015L14.8065 21.5292L13.8522 22.5235L13.4564 22.9357L12.8028 23.6181L12.2187 24.2268L12.1015 24.3492C11.8942 24.5652 11.6127 24.6867 11.3195 24.6867C11.0263 24.6867 10.7448 24.5652 10.5375 24.3492C10.4853 24.2952 10.4386 24.2357 10.3979 24.1719C10.3748 24.2972 10.3631 24.4246 10.3631 24.5522C10.3631 25.6576 11.236 26.5675 12.2974 26.5684C12.37 26.5684 12.4425 26.5643 12.5147 26.5559C12.9257 26.5076 13.3112 26.323 13.614 26.0295C13.6225 26.0213 13.6311 26.013 13.6393 26.0042L13.6645 25.9782L13.698 25.9433L14.7758 24.8204L16.5275 22.9959C16.9579 22.5575 17.657 22.5616 18.0826 23.0052L20.0411 25.0451C21.4824 25.3911 22.9914 25.2697 24.3644 24.697Z" fill="white"/>
</svg>
