<svg width="255" height="25" viewBox="0 0 255 25" fill="none" xmlns="http://www.w3.org/2000/svg">
<path d="M24.5195 1.52953C21.439 0.25383 17.9779 0.25383 14.8974 1.52953C14.6985 1.61345 14.4998 1.70337 14.3009 1.79594C13.8208 2.02633 13.3558 2.28749 12.9091 2.5779C12.1569 3.06611 11.4586 3.63346 10.826 4.27033L2.23323 12.9051C0.927706 14.2163 0.193359 15.997 0.193359 17.8519C0.193359 21.6884 3.33481 24.8454 7.15242 24.8454C7.15329 24.8454 7.15408 24.8454 7.15494 24.8454C7.23911 24.8454 7.32329 24.8454 7.40746 24.8408C5.35519 24.084 3.98307 22.1092 3.98307 19.9123C3.98307 18.4766 4.56909 17.1019 5.6034 16.1114L12.7885 8.89273L13.5507 8.12349L13.8085 7.86437L14.1014 7.5693C14.2804 7.39167 14.4658 7.22209 14.6575 7.06044C17.6272 4.4559 21.4395 3.02195 25.3811 3.02681C26.0234 3.02655 26.6651 3.06391 27.3031 3.13871C26.4481 2.48404 25.5124 1.94321 24.5195 1.52953ZM53.6395 4.94039C52.202 1.38552 48.11 -0.352879 44.5715 1.08793L44.482 1.12523C44.1173 1.27922 43.7665 1.46465 43.4335 1.67939C43.0117 1.95094 42.6204 2.26758 42.2664 2.62385L37.0093 7.90766L36.2504 8.66764C36.2272 8.69027 36.2041 8.7129 36.1802 8.73425C35.2706 9.57565 33.8434 9.54605 32.9691 8.66764L28.9362 4.61469C25.92 3.88769 22.7536 4.10483 19.8636 5.23678C21.9117 5.27168 23.8675 6.10852 25.3121 7.56797L32.2865 14.5762C33.5623 15.8553 35.6586 15.8553 36.9345 14.5762L45.5438 5.92415C45.6273 5.84023 45.7174 5.76277 45.8122 5.69236C46.7587 4.87752 47.9643 4.42939 49.2103 4.42939C51.4192 4.42939 53.4002 5.8377 54.1353 7.93097C54.1412 7.81175 54.1439 7.6932 54.1439 7.57397C54.1465 6.67133 53.9749 5.77662 53.6382 4.93972L53.6395 4.94039ZM49.2135 5.59778C48.9783 5.59758 48.7436 5.6181 48.5117 5.65906C48.6237 5.73713 48.729 5.82518 48.8258 5.92215C49.2613 6.35922 49.5058 6.95274 49.5058 7.57097C49.5058 8.1892 49.2613 8.78273 48.8258 9.2198L40.2708 17.8192L40.2158 17.8738C40.0647 18.0257 39.9089 18.1703 39.7486 18.3075C36.7595 20.9883 32.8888 22.4688 28.8825 22.4636C28.2847 22.4637 27.6873 22.4315 27.093 22.3671C30.6162 24.9981 35.2626 25.5969 39.3324 23.9443C39.5497 23.8555 39.7636 23.7613 39.9739 23.6619C41.282 23.0432 42.4731 22.2004 43.4939 21.1715L51.842 12.7859L52.1072 12.5194C52.2006 12.4253 52.2914 12.3289 52.3789 12.2304C52.9562 11.5069 53.271 10.6066 53.271 9.67936C53.271 7.44176 51.4384 5.60045 49.2122 5.60045C49.2109 5.60045 49.2103 5.60045 49.2096 5.60045L49.2135 5.59778ZM34.5272 20.2031C32.4536 20.1846 30.4682 19.3468 29.0031 17.8718L22.0619 10.8969C21.4413 10.2649 20.596 9.90543 19.7124 9.89786C18.8389 9.89419 17.9995 10.2427 17.3834 10.8649L15.3355 12.9244L14.4739 13.7902L12.4717 15.8031L11.6412 16.6376L10.27 18.019L9.04447 19.2512L8.79864 19.499C8.36372 19.9363 7.77312 20.1822 7.15792 20.1822C6.54275 20.1822 5.95215 19.9363 5.51725 19.499C5.40775 19.3896 5.30967 19.2693 5.2243 19.14C5.17578 19.3938 5.15139 19.6516 5.15139 19.9099C5.15139 22.1477 6.98276 23.9898 9.20955 23.9916C9.36188 23.9916 9.51406 23.9831 9.66549 23.9662C10.5279 23.8684 11.3366 23.4947 11.972 22.9006C11.9899 22.8839 12.0078 22.8672 12.025 22.8493L12.078 22.7966L12.1482 22.7261L14.4096 20.4528L18.0847 16.7595C18.9877 15.872 20.4546 15.8803 21.3475 16.7782L25.4566 20.9077C28.4805 21.6082 31.6465 21.3624 34.5272 20.2031Z" fill="white"/>
<path d="M74.5131 3.64801V12.5571L65.3669 3.57275H63.6875V21.824H68.4673V12.8902L77.5854 21.8499H79.2429V3.64801H74.5131Z" fill="white"/>
<path d="M89.2398 21.8591V3.68311H84.6572V7.73339H84.6654V17.7828H84.6572V21.8591H89.2398Z" fill="white"/>
<path d="M102.815 3.42676H100.827L92.6869 21.1618L92.376 21.8365H97.2061L98.2663 19.5519H105.398L106.458 21.8365H111.288L110.98 21.1618L102.815 3.42676ZM99.7665 15.5789L101.808 10.8013L103.9 15.5789H99.7665Z" fill="white"/>
<path d="M129.677 11.4747H121.127V15.499H124.972C124.145 17.2387 122.956 17.7323 121.096 17.7323C118.357 17.7323 116.6 15.7588 116.6 12.7468C116.6 9.9681 118.176 7.68485 121.096 7.68485C122.93 7.68485 124.12 8.3083 124.868 9.8662H129.416C128.537 5.34833 124.739 3.45274 121.096 3.42676C116.497 3.42676 111.846 6.54257 111.817 12.7515C111.843 18.9571 116.493 22.047 121.096 22.047C124.429 22.047 127.865 20.593 129.158 16.8018C129.777 15.0328 129.777 13.2923 129.677 11.4747Z" fill="white"/>
<path d="M141.187 3.42676H139.198L131.058 21.1618L130.749 21.8365H135.579L136.639 19.5519H143.771L144.831 21.8365H149.662L149.35 21.1618L141.187 3.42676ZM138.138 15.5789L140.18 10.8013L142.272 15.5789H138.138Z" fill="white"/>
<path d="M162.102 3.68311V10.2771H156.521V3.68311H151.792V21.8591H156.521V14.5624H162.102V21.8591H166.831V3.68311H162.102Z" fill="white"/>
<path d="M170.287 12.7789C170.287 25.372 188.839 25.372 188.839 12.7789C188.839 0.211076 170.287 0.211076 170.287 12.7789ZM175.041 12.7789C175.041 6.23487 184.11 6.23487 184.11 12.7789C184.11 19.3742 175.041 19.3742 175.041 12.7789Z" fill="white"/>
<path d="M198.634 11.0263C197.005 10.8445 195.662 10.5601 195.765 9.18264C195.92 7.02731 200.778 6.8195 200.778 9.23464H205.17C205.273 1.39249 191.218 1.39249 191.373 9.23464C191.424 13.181 194.009 14.5311 197.934 14.8168C199.742 14.9207 201.241 15.2064 201.241 16.482C201.241 18.6133 195.583 18.5854 195.583 16.2741H191.112C191.01 24.2721 205.737 24.1423 205.737 16.5079C205.739 11.9588 202.224 11.4126 198.634 11.0263Z" fill="white"/>
<path d="M207.35 3.68311V7.83729H211.79V21.8591H216.363V7.83729H220.781V3.68311H207.35Z" fill="white"/>
<path d="M228.186 17.7309V14.5371H234.335V10.4076H228.186V7.83662H234.879V3.68311H223.587V21.8591H235.11V17.7296L228.186 17.7309Z" fill="white"/>
<path d="M250.853 15.4197C255.426 12.3039 254.134 3.70908 247.028 3.68311H239.095V21.8591H243.721V16.51H246.125L249.227 21.8591H254.807L254.393 21.1843L250.853 15.4197ZM247.028 12.3818H243.721V7.83729C244.807 7.83729 245.942 7.81132 247.028 7.83729C249.664 7.86327 249.535 12.3818 247.028 12.3818Z" fill="white"/>
</svg>
