<svg width="115" height="42" viewBox="0 0 115 42" fill="none" xmlns="http://www.w3.org/2000/svg">
<path d="M6.59158 6.84496V12.1904L1.10384 6.7998H0.0961914V17.7506H2.96409V12.3903L8.43496 17.7661H9.42946V6.84496H6.59158Z" fill="white"/>
<path d="M15.4277 17.7718V6.86621H12.6782V9.29638H12.6831V15.326H12.6782V17.7718H15.4277Z" fill="white"/>
<path d="M23.5732 6.71289H22.38L17.4961 17.3539L17.3096 17.7587H20.2076L20.8438 16.388H25.1229L25.759 17.7587H28.6571L28.4719 17.3539L23.5732 6.71289ZM21.7439 14.0042L22.9688 11.1376L24.2241 14.0042H21.7439Z" fill="white"/>
<path d="M39.6904 11.5416H34.5604V13.9562H36.867C36.3709 15.0001 35.6578 15.2962 34.5416 15.2962C32.8984 15.2962 31.844 14.1121 31.844 12.3049C31.844 10.6377 32.7897 9.26774 34.5416 9.26774C35.6421 9.26774 36.3557 9.64182 36.8049 10.5766H39.5338C39.0064 7.86583 36.7275 6.72848 34.5416 6.71289C31.7822 6.71289 28.9916 8.58238 28.9741 12.3077C28.9898 16.0311 31.78 17.885 34.5416 17.885C36.5414 17.885 38.6033 17.0126 39.3786 14.7379C39.7503 13.6765 39.7503 12.6322 39.6904 11.5416Z" fill="white"/>
<path d="M46.5957 6.71289H45.4026L40.5182 17.3539L40.333 17.7587H43.2311L43.8672 16.388H48.1463L48.7825 17.7587H51.681L51.4935 17.3539L46.5957 6.71289ZM44.7664 14.0042L45.9913 11.1376L47.2471 14.0042H44.7664Z" fill="white"/>
<path d="M59.1447 6.86621V10.8226H55.7961V6.86621H52.9585V17.7718H55.7961V13.3938H59.1447V17.7718H61.9819V6.86621H59.1447Z" fill="white"/>
<path d="M64.0557 12.3235C64.0557 19.8793 75.1871 19.8793 75.1871 12.3235C75.1871 4.7828 64.0557 4.7828 64.0557 12.3235ZM66.9081 12.3235C66.9081 8.39708 72.3499 8.39708 72.3499 12.3235C72.3499 16.2807 66.9081 16.2807 66.9081 12.3235Z" fill="white"/>
<path d="M81.0642 11.2719C80.0871 11.1628 79.2814 10.9922 79.3431 10.1657C79.4362 8.87254 82.3508 8.74785 82.3508 10.1969H84.9862C85.048 5.49165 76.6146 5.49165 76.7077 10.1969C76.7385 12.5647 78.2891 13.3748 80.6445 13.5462C81.7294 13.6086 82.6286 13.78 82.6286 14.5453C82.6286 15.8241 79.2335 15.8074 79.2335 14.4206H76.5511C76.4898 19.2194 85.3262 19.1415 85.3262 14.5609C85.3271 11.8314 83.2187 11.5037 81.0642 11.2719Z" fill="white"/>
<path d="M86.2935 6.86621V9.35872H88.958V17.7718H91.7017V9.35872H94.3524V6.86621H86.2935Z" fill="white"/>
<path d="M98.7955 15.2949V13.3786H102.485V10.9009H98.7955V9.35832H102.812V6.86621H96.0361V17.7718H102.95V15.2941L98.7955 15.2949Z" fill="white"/>
<path d="M112.395 13.9081C115.14 12.0387 114.364 6.8818 110.1 6.86621H105.341V17.7718H108.116V14.5623H109.559L111.42 17.7718H114.768L114.519 17.3669L112.395 13.9081ZM110.1 12.0854H108.116V9.35872C108.768 9.35872 109.449 9.34314 110.1 9.35872C111.682 9.37431 111.604 12.0854 110.1 12.0854Z" fill="white"/>
<path d="M78 36.9669V27.1531H82.6709C83.715 27.1531 84.521 27.3851 85.0888 27.8491C85.6658 28.3039 85.9543 28.9164 85.9543 29.6866C85.9543 30.197 85.8261 30.6425 85.5697 31.0229C85.3224 31.4034 84.9744 31.6865 84.5256 31.8721C85.0659 32.0391 85.4827 32.3222 85.7757 32.7212C86.0688 33.111 86.2154 33.5982 86.2154 34.1828C86.2154 35.0459 85.9086 35.728 85.2949 36.2291C84.6904 36.721 83.8616 36.9669 82.8083 36.9669H78ZM80.4179 31.0508H82.2176C82.6755 31.0508 83.0098 30.9673 83.2205 30.8002C83.4403 30.6332 83.5502 30.378 83.5502 30.0346C83.5502 29.6912 83.4403 29.4407 83.2205 29.2829C83.0098 29.1159 82.6755 29.0324 82.2176 29.0324H80.4179V31.0508ZM80.4179 35.0876H82.4649C82.932 35.0876 83.2708 34.9995 83.4815 34.8232C83.7013 34.6376 83.8112 34.3638 83.8112 34.0019C83.8112 33.6399 83.7013 33.3708 83.4815 33.1945C83.2708 33.0182 82.932 32.93 82.4649 32.93H80.4179V35.0876Z" fill="white"/>
<path d="M87.6462 36.9669V27.1531H90.174V34.8371H94.4877V36.9669H87.6462Z" fill="white"/>
<path d="M99.8167 37.12C98.8367 37.12 97.9758 36.9112 97.2339 36.4936C96.5012 36.0667 95.9288 35.4728 95.5167 34.7118C95.1045 33.9508 94.8985 33.0646 94.8985 32.053C94.8985 31.0322 95.1 30.146 95.5029 29.3943C95.9151 28.6333 96.4921 28.044 97.2339 27.6264C97.9758 27.2088 98.8367 27 99.8167 27C100.797 27 101.653 27.2088 102.386 27.6264C103.128 28.044 103.705 28.6333 104.117 29.3943C104.529 30.146 104.735 31.0322 104.735 32.053C104.735 33.0646 104.529 33.9508 104.117 34.7118C103.705 35.4728 103.128 36.0667 102.386 36.4936C101.653 36.9112 100.797 37.12 99.8167 37.12ZM99.8167 34.9763C100.531 34.9763 101.09 34.7211 101.493 34.2107C101.905 33.691 102.111 32.9718 102.111 32.053C102.111 31.1343 101.909 30.4197 101.506 29.9093C101.104 29.3989 100.54 29.1437 99.8167 29.1437C99.0932 29.1437 98.5299 29.3989 98.1269 29.9093C97.7239 30.4197 97.5224 31.1343 97.5224 32.053C97.5224 32.9718 97.7239 33.691 98.1269 34.2107C98.5299 34.7211 99.0932 34.9763 99.8167 34.9763Z" fill="white"/>
<path d="M111.173 37.12C110.065 37.12 109.122 36.9112 108.343 36.4936C107.574 36.076 106.988 35.4913 106.585 34.7396C106.182 33.988 105.98 33.111 105.98 32.1087C105.98 31.0693 106.191 30.1692 106.612 29.4082C107.043 28.6379 107.656 28.044 108.453 27.6264C109.25 27.2088 110.211 27 111.338 27C112.016 27 112.661 27.0928 113.275 27.2784C113.889 27.4547 114.388 27.696 114.773 28.0023L114.003 29.9789C113.582 29.7005 113.156 29.501 112.726 29.3804C112.295 29.2504 111.837 29.1855 111.352 29.1855C110.427 29.1855 109.735 29.436 109.277 29.9372C108.829 30.4383 108.604 31.1621 108.604 32.1087C108.604 33.0553 108.833 33.7699 109.291 34.2524C109.749 34.735 110.427 34.9763 111.324 34.9763C111.746 34.9763 112.217 34.9113 112.739 34.7814V33.2363H110.802V31.4406H114.8V36.3683C114.287 36.6096 113.715 36.7952 113.083 36.9251C112.451 37.055 111.814 37.12 111.173 37.12Z" fill="white"/>
</svg>
